<svg xmlns="http://www.w3.org/2000/svg" viewBox="0 0 100 100" fill="none">
  <!-- Background circle -->
  <circle cx="50" cy="50" r="48" fill="#FAF0E4"/>

  <!-- Shoulders & Torso -->
  <path d="M22 92C22 79 32 72 41 72H59C68 72 78 79 78 92V96H22V92Z" fill="#C49A55"/>

  <!-- Inner Collar / Shirt detail -->
  <path d="M42 72L50 82L58 72H42Z" fill="#3E2F24"/>
  <path d="M45 72L50 78L55 72" stroke="#C49A55" stroke-width="1.2" stroke-linecap="round" fill="none"/>

  <!-- Neck -->
  <rect x="44" y="58" width="12" height="16" rx="3" fill="#8C5835"/>
  <rect x="44" y="66" width="12" height="8" rx="2" fill="#704326" opacity="0.35"/>

  <!-- Ears -->
  <circle cx="32" cy="48" r="4.5" fill="#8C5835"/>
  <circle cx="32" cy="48" r="2.2" fill="#704326" opacity="0.4"/>
  <circle cx="68" cy="48" r="4.5" fill="#8C5835"/>
  <circle cx="68" cy="48" r="2.2" fill="#704326" opacity="0.4"/>

  <!-- Head / Face Base -->
  <path d="M33 42C33 30 40 24 50 24C60 24 67 30 67 42C67 54 59 62 50 62C41 62 33 54 33 42Z" fill="#8C5835"/>

  <!-- Eyebrows -->
  <path d="M40 40C42 39 45 39 47 41" stroke="#1A1410" stroke-width="1.8" stroke-linecap="round"/>
  <path d="M60 40C58 39 55 39 53 41" stroke="#1A1410" stroke-width="1.8" stroke-linecap="round"/>

  <!-- Eyes -->
  <ellipse cx="43.5" cy="46" rx="2.2" ry="2.5" fill="#140E0B"/>
  <circle cx="44.2" cy="45.2" r="0.7" fill="#FFFDFC"/>
  <ellipse cx="56.5" cy="46" rx="2.2" ry="2.5" fill="#140E0B"/>
  <circle cx="57.2" cy="45.2" r="0.7" fill="#FFFDFC"/>

  <!-- Nose -->
  <path d="M49 48V52C47.8 52.8 48.5 54 50 54C51.5 54 52.2 52.8 51 52V48" stroke="#704326" stroke-width="1.5" stroke-linecap="round" fill="none"/>

  <!-- Warm Smile -->
  <path d="M45 56.5C47.5 58.5 52.5 58.5 55 56.5" stroke="#1A1410" stroke-width="1.8" stroke-linecap="round" fill="none"/>

  <!-- Cheeks highlight -->
  <circle cx="39" cy="51" r="3" fill="#C96F4A" opacity="0.2"/>
  <circle cx="61" cy="51" r="3" fill="#C96F4A" opacity="0.2"/>

  <!-- Glasses if any -->
  
      <!-- Round chic glasses -->
      <circle cx="43" cy="46" r="5.5" fill="none" stroke="#3E2F24" stroke-width="1.6"/>
      <circle cx="57" cy="46" r="5.5" fill="none" stroke="#3E2F24" stroke-width="1.6"/>
      <path d="M48.5 46H51.5" stroke="#3E2F24" stroke-width="1.6"/>
      <path d="M37.5 45L34 44" stroke="#3E2F24" stroke-width="1.3"/>
      <path d="M62.5 45L66 44" stroke="#3E2F24" stroke-width="1.3"/>
    

  <!-- Hair -->
  
        <!-- Short natural curls -->
        <path d="M30 40C29 27 37 20 50 20C63 20 71 27 70 40C73 37 72 30 68 25C62 19 38 19 32 25C28 30 27 37 30 40Z" fill="#231812"/>
        <circle cx="33" cy="28" r="4" fill="#231812"/>
        <circle cx="41" cy="22" r="4.5" fill="#231812"/>
        <circle cx="50" cy="20" r="4.5" fill="#231812"/>
        <circle cx="59" cy="22" r="4.5" fill="#231812"/>
        <circle cx="67" cy="28" r="4" fill="#231812"/>
      

  <!-- Accessories (earrings, etc.) -->
  
</svg>